<?xml version="1.0" encoding="UTF-8"?><svg id="Layer_1" xmlns="http://www.w3.org/2000/svg" viewBox="0 0 180 240" style="fill: white"><path d="m22.5,30c-4.14214,0-7.5,3.35786-7.5,7.5v180c0,4.14213,3.35786,7.5,7.5,7.5h135c4.14213,0,7.5-3.35787,7.5-7.5V37.5c0-4.14214-3.35787-7.5-7.5-7.5h-7.5c-4.14213,0-7.5-3.35786-7.5-7.5s3.35787-7.5,7.5-7.5h7.5c12.42641,0,22.5,10.07359,22.5,22.5v180c0,12.42641-10.07359,22.5-22.5,22.5H22.5c-12.42641,0-22.5-10.07359-22.5-22.5h0V37.5C0,25.07359,10.07359,15,22.5,15h7.5c4.14214,0,7.5,3.35786,7.5,7.5s-3.35786,7.5-7.5,7.5h-7.5Z"/><path d="m120,7.5c0-4.14214-3.35787-7.5-7.5-7.5h-45c-4.14214,0-7.5,3.35786-7.5,7.5s-3.35786,7.5-7.5,7.5-7.5,3.35786-7.5,7.5v7.5c0,4.14214,3.35786,7.5,7.5,7.5h75c4.14213,0,7.5-3.35786,7.5-7.5v-7.5c0-4.14214-3.35787-7.5-7.5-7.5s-7.5-3.35786-7.5-7.5Z"/><path d="m61.51608,111.68894l-11.89648,11.89648c-10.15946,10.15946-10.15946,26.63119,0,36.79065,10.15946,10.15946,26.6312,10.15946,36.79065,0h0l15.85041-15.85909c10.15788-10.15932,10.1567-26.62966-.00262-36.78754-2.08704-2.08675-4.51398-3.80311-7.17688-5.07559l-5.08115,5.08115c-.51585.51677-.96449,1.09652-1.33532,1.72551,9.2048,2.64618,14.52162,12.25331,11.87544,21.45812-.81235,2.82576-2.32981,5.39859-4.40979,7.47669l-15.84174,15.85042c-6.77616,6.77616-17.7625,6.77616-24.53866,0-6.77617-6.77616-6.77617-17.7625,0-24.53866l6.87603-6.86736c-.97014-3.63548-1.34496-7.40411-1.10987-11.15945v.00867Z"/><path d="m77.73934,95.47435c-10.15788,10.15932-10.1567,26.62966.00262,36.78754,2.08704,2.08675,4.51399,3.80311,7.17689,5.0756l6.71995-6.72862c-9.25062-2.48129-14.73824-11.99188-12.25695-21.2425.78832-2.93899,2.33608-5.61882,4.48782-7.77035l15.84174-15.85042c6.77616-6.77617,17.7625-6.77617,24.53866,0,6.77616,6.77617,6.77616,17.7625,0,24.53867h0l-6.87603,6.86736c.97115,3.64178,1.34399,7.41363,1.10988,11.15945l11.89648-11.89648c10.15946-10.15946,10.15946-26.6312,0-36.79065-10.15946-10.15946-26.6312-10.15946-36.79065,0l-15.85041,15.85042Z"/></svg>