<?xml version="1.0" encoding="utf-8"?>
<!-- Generator: Adobe Illustrator 25.3.0, SVG Export Plug-In . SVG Version: 6.00 Build 0)  -->
<svg version="1.1" id="레이어_1" xmlns="http://www.w3.org/2000/svg" xmlns:xlink="http://www.w3.org/1999/xlink" x="0px"
	 y="0px" viewBox="0 0 128 128" style="enable-background:new 0 0 128 128;" xml:space="preserve">
<style type="text/css">
	.st0{fill:#FFF000;}
	.st1{fill:#754C24;}
	.st2{fill:#8CC63F;}
	.st3{fill:#009245;}
</style>
<g>
	<path class="st0" d="M58.62,112.83c-10.18,0-19.98-3.1-28.35-8.96c-5.95-4.17-10.79-9.44-14.41-15.68
		c6.16,2.99,12.98,4.57,19.84,4.57c0,0,0,0,0,0c14.85,0,28.79-7.25,37.29-19.4c12.85-18.35,10.37-43.32-5.6-58.76
		c7.1,1.26,13.71,4.01,19.66,8.18c22.36,15.66,27.81,46.58,12.16,68.94C89.96,104.94,74.79,112.83,58.62,112.83
		C58.63,112.83,58.63,112.83,58.62,112.83z"/>
	<path class="st1" d="M68.91,15.4c6.43,1.36,12.42,3.97,17.87,7.78c22.13,15.5,27.53,46.11,12.03,68.24
		c-9.16,13.09-24.18,20.9-40.18,20.9c-10.07,0-19.78-3.07-28.06-8.87c-5.45-3.81-9.95-8.56-13.43-14.13
		c5.83,2.58,12.18,3.93,18.57,3.93c15.01,0,29.11-7.33,37.7-19.61C86.09,55.55,84.01,31.09,68.91,15.4 M65.86,13.85
		c16.67,14.99,19.92,40.4,6.74,59.23c-8.75,12.5-22.71,19.18-36.89,19.18c-7.18,0-14.42-1.71-21.08-5.26
		c3.58,6.67,8.73,12.64,15.36,17.28c8.73,6.11,18.73,9.05,28.64,9.05c15.76,0,31.27-7.43,41-21.33
		c15.84-22.62,10.34-53.8-12.28-69.64C80.72,17.72,73.35,14.93,65.86,13.85L65.86,13.85z"/>
</g>
<g>
	<polygon class="st2" points="89.41,81.67 81.34,85.25 84.92,77.18 79.02,70.61 87.8,71.52 92.23,63.88 94.08,72.51 102.71,74.36 
		95.07,78.79 95.98,87.57 	"/>
	<path class="st3" d="M92.01,65.25l1.51,7.05l0.14,0.63l0.63,0.14l7.05,1.51l-6.24,3.61l-0.56,0.32l0.07,0.64l0.74,7.17l-5.36-4.82
		l-0.48-0.43l-0.59,0.26l-6.59,2.92l2.92-6.59l0.26-0.59l-0.43-0.48l-4.82-5.36l7.17,0.74l0.64,0.07l0.32-0.56L92.01,65.25
		 M92.44,62.51l-4.91,8.48l-9.75-1.01l6.55,7.29l-3.97,8.96l8.96-3.97l7.29,6.55l-1.01-9.75l8.48-4.91l-9.59-2.05L92.44,62.51
		L92.44,62.51z"/>
</g>
</svg>
